<svg xmlns="http://www.w3.org/2000/svg" viewBox="0 0 64 64" role="img" aria-label="Matt and Alison wedding favicon">
  <rect width="64" height="64" rx="14" fill="#0f513f" />
  <path
    d="M32 49.5 14.8 32.3c-4.7-4.7-4.7-12.2 0-16.8 4.7-4.7 12.2-4.7 16.8 0l.4.4.4-.4c4.7-4.7 12.2-4.7 16.8 0 4.7 4.7 4.7 12.2 0 16.8L32 49.5Z"
    fill="#fffffb"
  />
  <path
    d="M32 45.2 17.7 30.9c-3.8-3.8-3.8-9.9 0-13.6 3.8-3.8 9.9-3.8 13.6 0l.7.7.7-.7c3.8-3.8 9.9-3.8 13.6 0 3.8 3.8 3.8 9.9 0 13.6L32 45.2Z"
    fill="#b9472c"
  />
  <path
    d="M32 40.4 21 29.4c-2.9-2.9-2.9-7.5 0-10.4 2.9-2.9 7.5-2.9 10.4 0l.6.6.6-.6c2.9-2.9 7.5-2.9 10.4 0 2.9 2.9 2.9 7.5 0 10.4L32 40.4Z"
    fill="#fbfbf7"
  />
  <circle cx="32" cy="32" r="4.2" fill="#c8914f" />
</svg>
